<svg width="17" height="16" viewBox="0 0 17 16" fill="none" xmlns="http://www.w3.org/2000/svg">
<path d="M8 7.5L8.02733 7.48667C8.11282 7.44396 8.20875 7.42664 8.30378 7.43677C8.3988 7.4469 8.48893 7.48404 8.5635 7.54381C8.63806 7.60357 8.69394 7.68345 8.72451 7.77399C8.75508 7.86453 8.75907 7.96193 8.736 8.05467L8.264 9.94533C8.24076 10.0381 8.24463 10.1356 8.27513 10.2263C8.30563 10.3169 8.36149 10.3969 8.43609 10.4568C8.51069 10.5166 8.60089 10.5538 8.696 10.564C8.7911 10.5741 8.88712 10.5568 8.97267 10.514L9 10.5M14.5 8C14.5 8.78793 14.3448 9.56815 14.0433 10.2961C13.7417 11.0241 13.2998 11.6855 12.7426 12.2426C12.1855 12.7998 11.5241 13.2417 10.7961 13.5433C10.0681 13.8448 9.28793 14 8.5 14C7.71207 14 6.93185 13.8448 6.2039 13.5433C5.47595 13.2417 4.81451 12.7998 4.25736 12.2426C3.70021 11.6855 3.25825 11.0241 2.95672 10.2961C2.65519 9.56815 2.5 8.78793 2.5 8C2.5 6.4087 3.13214 4.88258 4.25736 3.75736C5.38258 2.63214 6.9087 2 8.5 2C10.0913 2 11.6174 2.63214 12.7426 3.75736C13.8679 4.88258 14.5 6.4087 14.5 8ZM8.5 5.5H8.50533V5.50533H8.5V5.5Z" stroke="#6A6A6A" stroke-width="1.2" stroke-linecap="round" stroke-linejoin="round"/>
</svg>
