<svg width="129" height="22" viewBox="0 0 129 22" fill="none" xmlns="http://www.w3.org/2000/svg">
<g clip-path="url(#clip0_509_485)">
<path d="M0 4.97102H5.83695V21.1246H10.3245V4.97102H16.1536V0.930664H0V4.97102Z" fill="black"/>
<path d="M28.4393 13.5532C28.4393 15.8833 27.286 17.7583 24.9638 17.7583C22.6416 17.7583 21.4883 15.8754 21.4883 13.5532V5.98242H17.2832V13.5532C17.2832 17.9858 20.3115 21.579 24.9717 21.579C29.6318 21.579 32.6601 17.9858 32.6601 13.5532V5.98242H28.455V13.5532H28.4393Z" fill="black"/>
<path d="M69.6908 5.52734C65.062 5.52734 61.3354 9.12052 61.3354 13.5531C61.3354 17.9858 65.062 21.5789 69.6908 21.5789C74.3195 21.5789 78.0461 17.9858 78.0461 13.5531C78.0461 9.12052 74.3117 5.52734 69.6908 5.52734ZM69.6908 17.7583C67.3921 17.7583 65.5406 15.8754 65.5406 13.5531C65.5406 11.2309 67.3921 9.34803 69.6908 9.34803C71.9894 9.34803 73.8409 11.2309 73.8409 13.5531C73.8409 15.8754 71.9894 17.7583 69.6908 17.7583Z" fill="black"/>
<path d="M90.2766 21.5553C84.1808 21.5553 79.2617 16.8324 79.2617 10.9876C79.2617 5.14283 84.1808 0.419922 90.2766 0.419922C95.0858 0.419922 99.1889 3.36978 100.672 7.50428H95.784C94.6308 5.67631 92.6067 4.46813 90.2766 4.46813C86.6756 4.46813 83.7571 7.39445 83.7571 10.9876C83.7571 14.5808 86.6834 17.5071 90.2766 17.5071C92.5831 17.5071 94.5759 16.3303 95.7291 14.5259H100.617C99.1026 18.629 95.0544 21.5553 90.2766 21.5553Z" fill="#4278FC"/>
<path d="M127.589 5.62891H128.146V9.41821C125.831 9.41821 123.964 11.2854 123.964 13.5998V21.1235H119.783V13.5998C119.783 9.19854 122.96 5.62891 127.589 5.62891Z" fill="#4278FC"/>
<path d="M109.921 5.33887C105.583 5.33887 102.06 8.86928 102.06 13.1999C102.06 17.5306 105.59 21.061 109.921 21.061H112.235V17.201H109.921C107.717 17.201 105.92 15.4045 105.92 13.1999C105.92 10.9954 107.717 9.19878 109.921 9.19878C112.126 9.19878 113.922 10.9954 113.922 13.1999V21.061H117.782V13.1999C117.782 8.86143 114.252 5.33887 109.921 5.33887Z" fill="#4278FC"/>
<path d="M52.2109 5.74771H49.8024V9.63117H52.2109C54.4311 9.63117 56.2355 11.4356 56.2355 13.6558C56.2355 15.8761 54.4311 17.6805 52.2109 17.6805C49.9906 17.6805 48.1862 15.8761 48.1862 13.6558V0.930664H44.3028V5.81832H42.4748C37.8225 5.81832 34.6216 9.4115 34.6216 13.8441V21.1246H38.8267V13.8441C38.8267 11.5141 40.7017 9.63901 43.0318 9.63901H44.3028V13.6637C44.3028 18.0257 47.8489 21.5796 52.2187 21.5796C56.5886 21.5796 60.1347 18.0335 60.1347 13.6637C60.1347 9.29382 56.5886 5.74771 52.2187 5.74771H52.2109Z" fill="black"/>
</g>
<defs>
<clipPath id="clip0_509_485">
<rect width="128.146" height="21.1595" fill="white" transform="translate(0 0.419922)"/>
</clipPath>
</defs>
</svg>
