<?xml version="1.0" encoding="UTF-8"?>
<svg version="1.1" xmlns="http://www.w3.org/2000/svg" width="512" height="512">
<path d="M0 0 C1.9228007 -0.00417499 3.84559894 -0.00965341 5.76839262 -0.01631981 C11.04193495 -0.0307713 16.31532096 -0.02653058 21.58887184 -0.019153 C27.28017956 -0.01442295 32.97145338 -0.02692971 38.66275024 -0.03717041 C49.80827879 -0.05436663 60.95375098 -0.05519674 72.09928935 -0.04995751 C81.15791994 -0.04591629 90.21653386 -0.04735879 99.27516365 -0.05270576 C100.56437535 -0.05345419 101.85358705 -0.05420261 103.18186577 -0.05497371 C105.80087666 -0.05650518 108.41988754 -0.05804353 111.03889842 -0.05958868 C128.62308971 -0.06941728 146.20727223 -0.07358131 163.79146481 -0.06596279 C164.82251464 -0.06551703 164.82251464 -0.06551703 165.87439375 -0.06506227 C171.45605537 -0.06261341 177.03771692 -0.06000178 182.61937846 -0.05737813 C204.39199795 -0.04727536 226.16454031 -0.05563271 247.93714905 -0.07887268 C272.4079887 -0.10495057 296.87877427 -0.11774236 321.34962946 -0.11068493 C334.30321908 -0.1071905 347.25674536 -0.10943966 360.21032524 -0.12693596 C371.23677559 -0.14164458 382.26311801 -0.14231078 393.28956621 -0.12486505 C398.91510045 -0.11634193 404.54044176 -0.11423773 410.16596603 -0.1295166 C415.31721732 -0.14333417 420.46810987 -0.13863805 425.61934025 -0.11927737 C427.48128154 -0.11550809 429.34325136 -0.11846597 431.20516729 -0.12888902 C443.58794206 -0.19327053 454.15417362 0.33260233 463.53211975 9.3681488 C469.85617724 16.61767812 471.29239559 24.12796018 470.76649475 33.54393005 C469.67024565 42.45888139 465.51009009 47.80387458 458.9657135 53.6962738 C449.5694035 59.64452268 439.26897455 58.81300286 428.587677 58.77536011 C426.6648763 58.7795351 424.74207806 58.78501352 422.81928438 58.79167992 C417.54574205 58.80613141 412.27235604 58.80189068 406.99880517 58.79451311 C401.30749744 58.78978306 395.61622362 58.80228982 389.92492676 58.81253052 C378.77939821 58.82972673 367.63392602 58.83055685 356.48838765 58.82531761 C347.42975707 58.8212764 338.37114314 58.8227189 329.31251335 58.82806587 C327.3786958 58.82918851 327.3786958 58.82918851 325.40581123 58.83033382 C322.78680035 58.83186529 320.16778946 58.83340364 317.54877859 58.83494879 C299.9645873 58.84477739 282.38040477 58.84894142 264.7962122 58.8413229 C264.10884564 58.84102573 263.42147909 58.84072855 262.71328325 58.84042237 C257.13162163 58.83797351 251.54996008 58.83536189 245.96829854 58.83273824 C224.19567906 58.82263546 202.42313669 58.83099282 180.65052795 58.85423279 C156.1796883 58.88031067 131.70890273 58.89310247 107.23804754 58.88604504 C94.28445793 58.88255061 81.33093164 58.88479977 68.37735176 58.90229607 C57.35090141 58.91700469 46.32455899 58.91767089 35.29811079 58.90022516 C29.67257655 58.89170203 24.04723524 58.88959783 18.42171097 58.90487671 C13.27045968 58.91869428 8.11956714 58.91399816 2.96833675 58.89463747 C1.10639547 58.8908682 -0.75557436 58.89382608 -2.61749028 58.90424912 C-15.00026506 58.96863064 -25.56649662 58.44275778 -34.94444275 49.4072113 C-41.26850024 42.15768199 -42.70471859 34.64739993 -42.17881775 25.23143005 C-41.08256865 16.31647871 -36.92241308 10.97148552 -30.3780365 5.0790863 C-20.98172649 -0.86916257 -10.68129755 -0.03764275 0 0 Z " fill="#4EA7E0" transform="translate(41.70616149902344,226.61231994628906)"/>
<path d="M0 0 C1.17971736 -0.00307895 1.17971736 -0.00307895 2.3832674 -0.0062201 C5.02865579 -0.01189162 7.67399213 -0.01043266 10.31938553 -0.00901413 C12.23119455 -0.01159767 14.14300303 -0.0146108 16.05481076 -0.01801753 C21.31647144 -0.02609196 26.57811848 -0.02787735 31.83978462 -0.028615 C37.5113639 -0.03046476 43.18293608 -0.03801167 48.85451126 -0.04475021 C61.25938158 -0.05833684 73.66424866 -0.06435866 86.06912518 -0.06876087 C93.81269461 -0.07152253 101.5562628 -0.07575972 109.29983139 -0.08026505 C130.73390399 -0.09245775 152.16797495 -0.1027927 173.60205078 -0.10614014 C174.98794165 -0.10636177 176.37383251 -0.10658355 177.75972338 -0.10680549 C179.1489519 -0.10702613 180.53818042 -0.10724661 181.92740893 -0.10746694 C184.71441952 -0.10790949 187.50143011 -0.1083566 190.2884407 -0.10880661 C190.97945645 -0.108916 191.6704722 -0.10902539 192.38242782 -0.1091381 C214.79095904 -0.1127691 237.19945792 -0.12869128 259.60797676 -0.15199697 C283.301556 -0.17659411 306.99511135 -0.19030618 330.68870473 -0.19150805 C343.60375059 -0.19242534 356.51875409 -0.19819129 369.4337883 -0.21632767 C380.42996692 -0.2317149 391.42609009 -0.23685722 402.42227742 -0.22858956 C408.03345726 -0.2246783 413.64452538 -0.22563599 419.25569153 -0.23964691 C424.39280242 -0.25235695 429.52971732 -0.25121373 434.66682783 -0.2390562 C436.52483615 -0.23709419 438.38285821 -0.24020081 440.2408472 -0.24890056 C463.550265 -0.35112973 463.550265 -0.35112973 472.7571907 8.69783401 C479.47033879 16.05268008 480.91710655 23.38585794 480.56578445 33.18220901 C479.65049042 42.16630867 475.39665434 47.53235008 468.8353157 53.44002151 C459.43576954 59.39031901 449.1350241 58.55410046 438.45055008 58.51237869 C436.52703715 58.51583717 434.6035262 58.52060301 432.68001938 58.52656043 C427.40454155 58.53907389 422.12922671 58.53289839 416.85374832 58.52360177 C411.16041845 58.51681308 405.46711657 58.52729163 399.77379227 58.53554153 C388.62458482 58.54888295 377.47543796 58.54599929 366.32622814 58.53730361 C357.26520605 58.5305291 348.20420093 58.52960935 339.14317703 58.53287506 C337.2089264 58.53356461 337.2089264 58.53356461 335.23559999 58.53426809 C332.61602338 58.53522726 329.99644676 58.5361999 327.37687016 58.53718586 C303.51209109 58.54549707 279.64734645 58.5368773 255.78257287 58.52115807 C234.00326112 58.50692157 212.22400199 58.50819546 190.4446907 58.52254105 C165.96763803 58.53860974 141.49061914 58.54491697 117.01356125 58.53570426 C114.40360896 58.53474861 111.79365667 58.53380549 109.18370438 58.53287506 C107.25747325 58.53218082 107.25747325 58.53218082 105.29232836 58.53147256 C96.24195302 58.52888204 87.19159635 58.53325501 78.14122391 58.54031372 C67.11219601 58.54872655 56.08323217 58.54645308 45.05421162 58.53047149 C39.42680778 58.52258592 33.79951075 58.51950215 28.1721077 58.52941895 C23.02034366 58.53836026 17.86878543 58.53344209 12.71704006 58.51748629 C10.85377169 58.51413613 8.99048592 58.51583783 7.12722874 58.52311365 C-6.00506552 58.57045882 -15.74408257 58.2041112 -25.66077805 48.56502151 C-31.91071418 41.57451845 -32.71053146 34.1476221 -32.27796555 25.01424026 C-31.3025431 16.43397553 -27.48425092 10.85690979 -20.8209343 5.53377151 C-14.0678822 0.76143746 -8.08200532 -0.01962496 0 0 Z " fill="#4A82ED" transform="translate(31.836559295654297,425.8685722351074)"/>
<path d="M0 0 C1.92351293 -0.00345848 3.84702388 -0.00822432 5.7705307 -0.01418173 C11.04600853 -0.02669519 16.32132337 -0.0205197 21.59680176 -0.01122308 C27.29013163 -0.00443439 32.98343351 -0.01491293 38.67675781 -0.02316284 C49.82596526 -0.03650426 60.97511212 -0.03362059 72.12432194 -0.02492492 C81.18534403 -0.0181504 90.24634915 -0.01723065 99.30737305 -0.02049637 C101.24162368 -0.02118592 101.24162368 -0.02118592 103.21495008 -0.0218894 C105.8345267 -0.02284857 108.45410332 -0.02382121 111.07367992 -0.02480717 C134.93845899 -0.03311837 158.80320363 -0.02449861 182.66797721 -0.00877938 C204.44728896 0.00545712 226.22654809 0.00418323 248.00585938 -0.01016235 C272.48291205 -0.02623104 296.95993094 -0.03253828 321.43698883 -0.02332556 C324.04694112 -0.02236991 326.65689341 -0.0214268 329.2668457 -0.02049637 C331.19307683 -0.01980213 331.19307683 -0.01980213 333.15822172 -0.01909386 C342.20859706 -0.01650335 351.25895373 -0.02087631 360.30932617 -0.02793503 C371.33835407 -0.03634786 382.36731791 -0.03407439 393.39633846 -0.0180928 C399.0237423 -0.01020723 404.65103933 -0.00712346 410.27844238 -0.01704025 C415.43020641 -0.02598157 420.58176465 -0.02106339 425.73351002 -0.0051076 C427.59677839 -0.00175744 429.46006416 -0.00345913 431.32332134 -0.01073496 C444.4556156 -0.05808013 454.19463265 0.30826749 464.11132812 9.94735718 C470.36126426 16.93786025 471.16108154 24.36475659 470.72851562 33.49813843 C469.75309318 42.07840316 465.93480099 47.6554689 459.27148438 52.97860718 C452.51843228 57.75094123 446.5325554 58.53200365 438.45055008 58.51237869 C437.27083272 58.51545764 437.27083272 58.51545764 436.06728268 58.51859879 C433.42189429 58.52427031 430.77655795 58.52281136 428.13116455 58.52139282 C426.21935553 58.52397636 424.30754705 58.52698949 422.39573932 58.53039622 C417.13407864 58.53847065 411.8724316 58.54025604 406.61076546 58.54099369 C400.93918618 58.54284346 395.267614 58.55039037 389.59603882 58.55712891 C377.1911685 58.57071553 364.78630142 58.57673736 352.3814249 58.58113956 C344.63785547 58.58390122 336.89428728 58.58813842 329.15071869 58.59264374 C307.71664609 58.60483644 286.28257513 58.61517139 264.8484993 58.61851883 C263.46260843 58.61874046 262.07671757 58.61896225 260.6908267 58.61918418 C259.30159818 58.61940482 257.91236966 58.6196253 256.52314115 58.61984563 C253.73613055 58.62028818 250.94911996 58.6207353 248.16210938 58.6211853 C247.47109363 58.62129469 246.78007788 58.62140408 246.06812226 58.62151679 C223.65959104 58.6251478 201.25109216 58.64106998 178.84257332 58.66437567 C155.14899408 58.68897281 131.45543873 58.70268487 107.76184535 58.70388675 C94.84679949 58.70480404 81.93179599 58.71056998 69.01676178 58.72870636 C58.02058316 58.74409359 47.02445999 58.74923591 36.02827266 58.74096826 C30.41709282 58.737057 24.8060247 58.73801468 19.19485855 58.7520256 C14.05774766 58.76473564 8.92083276 58.76359243 3.78372225 58.75143489 C1.92571393 58.74947289 0.06769187 58.75257951 -1.79029712 58.76127926 C-25.09971492 58.86350842 -25.09971492 58.86350842 -34.30664062 49.81454468 C-41.01978871 42.45969862 -42.46655647 35.12652076 -42.11523438 25.33016968 C-41.19994035 16.34607003 -36.94610426 10.98002861 -30.38476562 5.07235718 C-20.98521946 -0.87794032 -10.68447402 -0.04172176 0 0 Z " fill="#53CDD3" transform="translate(41.712890625,27.619049072265625)"/>
</svg>
