<svg width="45" height="45" viewBox="0 0 45 45" fill="none" xmlns="http://www.w3.org/2000/svg">
<path d="M10.8984 26.4551C10.3596 26.4551 9.83279 26.6149 9.38473 26.9143C8.93667 27.2136 8.58745 27.6392 8.38123 28.137C8.17501 28.6349 8.12105 29.1827 8.22618 29.7112C8.33131 30.2398 8.59081 30.7252 8.97185 31.1063C9.35289 31.4873 9.83837 31.7468 10.3669 31.8519C10.8954 31.9571 11.4432 31.9031 11.9411 31.6969C12.439 31.4907 12.8645 31.1415 13.1639 30.6934C13.4633 30.2453 13.623 29.7186 13.623 29.1797C13.6222 28.4573 13.3349 27.7648 12.8241 27.254C12.3133 26.7432 11.6208 26.4559 10.8984 26.4551ZM10.8984 30.6738C10.6029 30.6738 10.314 30.5862 10.0683 30.422C9.82263 30.2578 9.63112 30.0245 9.51803 29.7515C9.40494 29.4785 9.37536 29.178 9.43301 28.8882C9.49066 28.5984 9.63296 28.3321 9.84192 28.1232C10.0509 27.9142 10.3171 27.7719 10.6069 27.7143C10.8968 27.6566 11.1972 27.6862 11.4702 27.7993C11.7432 27.9124 11.9766 28.1039 12.1408 28.3496C12.3049 28.5953 12.3926 28.8842 12.3926 29.1797C12.3922 29.5758 12.2347 29.9557 11.9545 30.2358C11.6744 30.5159 11.2946 30.6735 10.8984 30.6738Z" fill="#101010"/>
<path d="M33.0469 26.4551C32.508 26.4551 31.9812 26.6149 31.5332 26.9143C31.0851 27.2136 30.7359 27.6392 30.5297 28.137C30.3234 28.6349 30.2695 29.1827 30.3746 29.7112C30.4797 30.2398 30.7392 30.7252 31.1203 31.1063C31.5013 31.4873 31.9868 31.7468 32.5153 31.8519C33.0439 31.9571 33.5917 31.9031 34.0895 31.6969C34.5874 31.4907 35.0129 31.1415 35.3123 30.6934C35.6117 30.2453 35.7715 29.7186 35.7715 29.1797C35.7706 28.4573 35.4833 27.7648 34.9725 27.254C34.4618 26.7432 33.7692 26.4559 33.0469 26.4551ZM33.0469 30.6738C32.7514 30.6738 32.4625 30.5862 32.2168 30.422C31.9711 30.2578 31.7796 30.0245 31.6665 29.7515C31.5534 29.4785 31.5238 29.178 31.5814 28.8882C31.6391 28.5984 31.7814 28.3321 31.9904 28.1232C32.1993 27.9142 32.4656 27.7719 32.7554 27.7143C33.0452 27.6566 33.3456 27.6862 33.6187 27.7993C33.8917 27.9124 34.125 28.1039 34.2892 28.3496C34.4534 28.5953 34.541 28.8842 34.541 29.1797C34.5406 29.5758 34.3831 29.9557 34.103 30.2358C33.8229 30.5159 33.443 30.6735 33.0469 30.6738Z" fill="#101010"/>
<path d="M41.3525 18.939L34.0393 18.1406L27.5839 11.7714C27.0751 11.2667 26.387 10.9844 25.6704 10.9863H7.88133C7.40839 10.9874 6.94381 11.111 6.5329 11.3452C6.12199 11.5793 5.77878 11.916 5.53676 12.3223L2.22574 17.9184C1.97698 18.3386 1.84572 18.8178 1.8457 19.3061V27.6233C1.84563 27.7491 1.88416 27.8719 1.95608 27.9752C2.028 28.0784 2.12985 28.1571 2.24789 28.2006L6.0866 29.6167C6.19305 30.8027 6.73388 31.9077 7.60525 32.7193C8.47663 33.531 9.61712 33.9921 10.8077 34.0142C11.9984 34.0363 13.1552 33.6178 14.0561 32.8391C14.957 32.0603 15.5384 30.9762 15.6888 29.7949H28.2565C28.4049 30.9606 28.9733 32.0322 29.8551 32.8089C30.737 33.5856 31.8718 34.0141 33.0469 34.0141C34.222 34.0141 35.3568 33.5856 36.2386 32.8089C37.1205 32.0322 37.6888 30.9606 37.8373 29.7949H42.5391C42.6199 29.795 42.6999 29.7791 42.7746 29.7482C42.8492 29.7173 42.9171 29.672 42.9742 29.6148C43.0313 29.5577 43.0767 29.4899 43.1076 29.4152C43.1385 29.3405 43.1543 29.2605 43.1543 29.1797V20.9486C43.155 20.4503 42.9714 19.9693 42.6387 19.5983C42.3061 19.2273 41.8479 18.9925 41.3525 18.939ZM3.07617 22.2768H5.36133V22.6037C5.36142 22.6694 5.34675 22.7342 5.31839 22.7934C5.29003 22.8526 5.24871 22.9047 5.1975 22.9458L4.10063 23.831C3.95978 23.9445 3.7844 24.0065 3.60352 24.0068H3.07617V22.2768ZM10.8984 32.7832C10.1857 32.7832 9.48903 32.5719 8.89643 32.1759C8.30384 31.7799 7.84196 31.2172 7.56922 30.5587C7.29648 29.9002 7.22512 29.1757 7.36416 28.4767C7.5032 27.7777 7.84641 27.1356 8.35037 26.6316C8.85433 26.1277 9.49641 25.7845 10.1954 25.6454C10.8944 25.5064 11.619 25.5777 12.2774 25.8505C12.9359 26.1232 13.4987 26.5851 13.8947 27.1777C14.2906 27.7703 14.502 28.467 14.502 29.1797C14.5009 30.1351 14.1209 31.0511 13.4454 31.7266C12.7698 32.4022 11.8538 32.7822 10.8984 32.7832ZM33.0469 32.7832C32.3342 32.7832 31.6375 32.5719 31.0449 32.1759C30.4523 31.7799 29.9904 31.2172 29.7177 30.5587C29.4449 29.9002 29.3736 29.1757 29.5126 28.4767C29.6516 27.7777 29.9948 27.1356 30.4988 26.6316C31.0028 26.1277 31.6448 25.7845 32.3439 25.6454C33.0429 25.5064 33.7674 25.5777 34.4259 25.8505C35.0843 26.1232 35.6471 26.5851 36.0431 27.1777C36.439 27.7703 36.6504 28.467 36.6504 29.1797C36.6494 30.1351 36.2694 31.0511 35.5938 31.7266C34.9182 32.4022 34.0023 32.7822 33.0469 32.7832ZM37.8373 28.5645C37.6888 27.3988 37.1205 26.3272 36.2386 25.5505C35.3568 24.7738 34.222 24.3453 33.0469 24.3453C31.8718 24.3453 30.737 24.7738 29.8551 25.5505C28.9733 26.3272 28.4049 27.3988 28.2565 28.5645H15.6888C15.5429 27.4195 14.9916 26.3646 14.1349 25.591C13.2783 24.8174 12.1728 24.3763 11.0189 24.3475C9.865 24.3187 8.73895 24.7042 7.84477 25.4342C6.9506 26.1641 6.34745 27.1901 6.14461 28.3265L3.07617 27.1944V25.2373H3.60352C4.06553 25.2367 4.5135 25.0784 4.87336 24.7887L5.97023 23.9031C6.16485 23.7468 6.32178 23.5488 6.42938 23.3236C6.53698 23.0984 6.59249 22.8519 6.5918 22.6023V21.6601C6.59152 21.4972 6.52656 21.341 6.41121 21.2259C6.29585 21.1108 6.13952 21.0462 5.97656 21.0463H3.07617V19.3061C3.07617 19.0384 3.14818 18.7756 3.28465 18.5453L6.59672 12.9498C6.72939 12.7269 6.91756 12.5422 7.14289 12.4138C7.36822 12.2853 7.623 12.2174 7.88238 12.2168H25.6714C26.0638 12.2162 26.4403 12.3711 26.7188 12.6475L33.3281 19.1668C33.4269 19.2641 33.5556 19.3252 33.6934 19.3402L41.2193 20.1621C41.4132 20.183 41.5926 20.2748 41.7228 20.42C41.853 20.5653 41.9249 20.7535 41.9245 20.9486V21.5898L36.983 21.0502C36.8766 21.0374 36.7688 21.0531 36.6705 21.0956C36.5723 21.1382 36.4871 21.2061 36.4236 21.2924C36.3595 21.378 36.3188 21.4788 36.3056 21.5849C36.2923 21.691 36.3069 21.7987 36.348 21.8974L37.2161 23.9899C37.3684 24.3597 37.6273 24.6757 37.9598 24.8978C38.2923 25.12 38.6833 25.2381 39.0832 25.2373H41.9245V28.5645H37.8373ZM41.9238 24.0068H39.0825C38.9261 24.0072 38.7732 23.9611 38.6431 23.8743C38.513 23.7876 38.4117 23.6641 38.352 23.5195L37.8823 22.3872L41.9252 22.8284L41.9238 24.0068Z" fill="#101010"/>
<path d="M26.1023 13.2725C25.9868 13.1596 25.8317 13.0966 25.6703 13.0967H7.81757C7.71112 13.097 7.60656 13.1249 7.51413 13.1777C7.4217 13.2305 7.34455 13.3064 7.29023 13.398L5.58128 16.2769C5.53699 16.3515 5.50899 16.4346 5.49912 16.5208C5.48924 16.607 5.49771 16.6943 5.52398 16.777C5.55024 16.8597 5.5937 16.9358 5.65151 17.0005C5.70931 17.0652 5.78015 17.1169 5.85937 17.1523L10.6473 19.2898C10.7263 19.3252 10.8118 19.3434 10.8983 19.3432H30.7556C30.8779 19.3434 30.9975 19.3072 31.0991 19.2392C31.2007 19.1711 31.2798 19.0743 31.3262 18.9612C31.3726 18.848 31.3842 18.7236 31.3596 18.6038C31.335 18.484 31.2753 18.3743 31.188 18.2886L26.1023 13.2725ZM20.2193 14.3271L21.1815 18.1128H14.6776V14.3257L20.2193 14.3271ZM6.99175 16.31L8.16808 14.3257H13.4471V18.1128H11.0294L6.99175 16.31ZM22.451 18.1128L21.4888 14.3257H25.4178L29.2562 18.1128H22.451Z" fill="#101010"/>
<path d="M23.7305 20.3818H21.9727C21.8095 20.3818 21.653 20.4467 21.5376 20.562C21.4222 20.6774 21.3574 20.8339 21.3574 20.9971C21.3574 21.1602 21.4222 21.3167 21.5376 21.4321C21.653 21.5475 21.8095 21.6123 21.9727 21.6123H23.7305C23.8936 21.6123 24.0501 21.5475 24.1655 21.4321C24.2809 21.3167 24.3457 21.1602 24.3457 20.9971C24.3457 20.8339 24.2809 20.6774 24.1655 20.562C24.0501 20.4467 23.8936 20.3818 23.7305 20.3818Z" fill="#101010"/>
</svg>
